HIERARCHY
ROOT Hips
{
	OFFSET -3.958830 18.904000 13.208200
	CHANNELS 6 Xposition Yposition Zposition Zrotation Yrotation Xrotation 
	JOINT LHipJoint
	{
		OFFSET 0.000000 0.000000 0.000000
		CHANNELS 3 Zrotation Yrotation Xrotation
		JOINT LeftUpLeg
		{
			OFFSET 1.800000 -1.400000 0.085000
			CHANNELS 3 Zrotation Yrotation Xrotation
			JOINT LeftLeg
			{
				OFFSET 2.215000 -6.000000 0.000000
				CHANNELS 3 Zrotation Yrotation Xrotation
				JOINT LeftFoot
				{
					OFFSET 2.500000 -6.900000 0.000000
					CHANNELS 3 Zrotation Yrotation Xrotation
					JOINT LeftToeBase
					{
						OFFSET 0.200000 -0.500000 1.950000
						CHANNELS 3 Zrotation Yrotation Xrotation
						End Site
						{
							OFFSET 0.000000 0.000000 0.000000
						}
					}
				}
			}
		}
	}
	JOINT RHipJoint
	{
		OFFSET 0.000000 0.000000 0.000000
		CHANNELS 3 Zrotation Yrotation Xrotation
		JOINT RightUpLeg
		{
			OFFSET -1.800000 -1.400000 0.085000
			CHANNELS 3 Zrotation Yrotation Xrotation
			JOINT RightLeg
			{
				OFFSET -2.215000 -6.000000 0.000000
				CHANNELS 3 Zrotation Yrotation Xrotation
				JOINT RightFoot
				{
					OFFSET -2.500000 -6.900000 0.000000
					CHANNELS 3 Zrotation Yrotation Xrotation
					JOINT RightToeBase
					{
						OFFSET -0.200000 -0.500000 1.950000
						CHANNELS 3 Zrotation Yrotation Xrotation
						End Site
						{
							OFFSET 0.000000 0.000000 0.000000
						}
					}
				}
			}
		}
	}
	JOINT LowerBack
	{
		OFFSET 0.000000 0.000000 0.000000
		CHANNELS 3 Zrotation Yrotation Xrotation
		JOINT Spine
		{
			OFFSET -0.087000 1.940000 -0.288900
			CHANNELS 3 Zrotation Yrotation Xrotation
			JOINT Spine1
			{
				OFFSET 0.000000 1.950000 0.060000
				CHANNELS 3 Zrotation Yrotation Xrotation
				JOINT Neck
				{
					OFFSET 0.000000 0.000000 0.000000
					CHANNELS 3 Zrotation Yrotation Xrotation
					JOINT Neck1
					{
						OFFSET 0.000000 1.600000 0.340000
						CHANNELS 3 Zrotation Yrotation Xrotation
						JOINT Head
						{
							OFFSET 0.000000 1.667000 -0.240000
							CHANNELS 3 Zrotation Yrotation Xrotation
							End Site
							{
								OFFSET 0.000000 0.000000 0.000000
							}
						}
					}
				}
				JOINT LeftShoulder
				{
					OFFSET 0.000000 0.000000 0.000000
					CHANNELS 3 Zrotation Yrotation Xrotation
					JOINT LeftArm
					{
						OFFSET 2.700000 1.550000 -0.730000
						CHANNELS 3 Zrotation Yrotation Xrotation
						JOINT LeftForeArm
						{
							OFFSET 5.450000 0.000000 0.000000
							CHANNELS 3 Zrotation Yrotation Xrotation
							JOINT LeftHand
							{
								OFFSET 3.450000 0.000000 0.000000
								CHANNELS 3 Zrotation Yrotation Xrotation
								JOINT LeftHandIndex1
								{
									OFFSET 0.750000 0.000000 0.000000
									CHANNELS 3 Zrotation Yrotation Xrotation
									End Site
									{
										OFFSET 0.000000 0.000000 0.000000
									}
								}
							}
						}
					}
				}
				JOINT RightShoulder
				{
					OFFSET 0.000000 0.000000 0.000000
					CHANNELS 3 Zrotation Yrotation Xrotation
					JOINT RightArm
					{
						OFFSET -2.700000 1.550000 -0.730000
						CHANNELS 3 Zrotation Yrotation Xrotation
						JOINT RightForeArm
						{
							OFFSET -5.450000 0.000000 0.000000
							CHANNELS 3 Zrotation Yrotation Xrotation
							JOINT RightHand
							{
								OFFSET -3.450000 0.000000 0.000000
								CHANNELS 3 Zrotation Yrotation Xrotation
								JOINT RightHandIndex1
								{
									OFFSET -0.750000 0.000000 0.000000
									CHANNELS 3 Zrotation Yrotation Xrotation
									End Site
									{
										OFFSET 0.000000 0.000000 0.000000
									}
								}
							}
						}
					}
				}
			}
		}
	}
}
MOTION
Frames: 13
Frame Time: 0.016667
-0.615440 17.360650 -5.651170 -3.426951 -9.339632 -5.518710 -15.315960 12.419735 3.751414 -12.711214 -1.966027 1.735332 -16.765433 12.849373 32.074047 0.757661 8.830279 1.983699 -0.203930 -0.321580 -0.687870 18.448657 -8.767560 4.111539 4.824894 9.281779 -33.783769 23.528396 -16.191823 39.525624 -1.481270 -7.829086 1.647278 -0.298300 1.205260 0.922420 -3.653367 -3.293304 -8.663331 13.192786 -9.875452 41.445211 -7.613180 -6.166997 9.858334 2.904788 -6.567081 -11.640155 -14.463165 5.809987 31.457599 -5.117150 1.700830 -15.797740 -9.836448 -13.615075 5.071418 -13.645127 -8.624699 -8.861495 99.660126 -54.139422 -67.352696 -4.194592 1.935022 0.727700 0.500040 0.225520 0.601780 4.376708 15.961102 7.708306 27.294395 0.408790 -19.260498 -69.467676 59.765464 -39.614742 1.146952 -0.246394 -0.238020 0.522790 0.473690 0.415750 
-0.549650 17.029490 -5.648070 -1.466655 -10.953582 -5.197687 -15.403079 12.097604 3.983005 -18.329889 -1.549776 1.456386 -15.863158 12.048743 31.318619 0.575603 8.634901 2.058462 -0.256000 -0.420310 -0.717780 18.442427 -8.390476 4.316256 3.707080 10.545493 -36.813909 26.769144 -17.481863 40.596195 -1.633804 -8.381613 1.462270 -0.305610 1.285400 0.943020 -3.564939 -3.381544 -8.873736 11.306316 -9.007184 44.124573 -6.762812 -6.125130 6.844107 2.311072 -6.558779 -9.621246 -13.714934 6.633734 30.088653 -4.518290 2.230020 -20.541450 -13.299074 -12.145995 2.827049 1.527575 -2.442859 -8.132711 102.819070 -48.713587 -60.670676 -4.321592 2.094075 0.835730 0.518360 0.203580 0.572240 8.955120 14.519610 6.276822 9.912210 -3.175335 -15.501687 -80.085656 58.774236 -44.607655 1.143938 -0.071900 -0.336740 0.618680 0.580420 0.371170 
-0.499680 16.723050 -5.633080 -0.077378 -10.687368 -4.654793 -15.441241 11.840431 4.123010 -21.307619 -1.966646 0.627312 -15.515747 12.046622 32.751242 0.493247 8.872797 1.953723 -0.359360 -0.619270 -0.692060 18.454129 -8.081000 4.554900 1.335571 11.489186 -40.308793 29.989763 -19.314309 42.116382 -1.778250 -9.065815 1.217656 -0.383700 1.304150 0.960030 -3.554797 -3.418812 -9.125150 11.540872 -8.522162 43.579642 -6.637350 -5.784486 5.477953 2.298649 -5.270182 -8.511259 -12.215916 6.580113 34.880384 -6.104240 2.653260 -19.855570 -15.665301 -13.490275 1.499551 15.681780 2.311512 -6.254009 96.174736 -48.359986 -48.959782 -4.490600 2.003711 0.923270 0.539650 0.171570 0.455440 11.191396 14.763842 5.793370 -4.663614 -8.393071 -12.276664 -84.636020 56.794924 -44.478898 1.301111 -0.155472 -0.413350 0.649590 0.722140 0.277830 
-0.452330 16.521090 -5.590650 1.194030 -11.167532 -5.799549 -15.459855 11.703642 4.213148 -22.813471 -2.456518 0.671201 -14.864019 12.358442 35.492399 0.371250 9.374202 1.746319 -0.385440 -0.737450 -0.641490 18.465167 -7.917320 4.627282 -1.125019 11.815680 -41.338254 30.894187 -20.985914 44.923371 -1.942761 -9.755659 0.946833 -0.378740 1.303890 0.940870 -3.569938 -3.480913 -9.229633 11.001796 -8.620533 44.126846 -6.439512 -6.573153 5.424460 1.756783 -6.174543 -7.180543 -14.872933 7.674450 39.014007 -4.555280 1.538670 -22.493410 -16.662714 -13.820076 0.858981 24.953002 8.200406 -3.940097 91.302039 -49.574459 -43.169874 -4.613756 1.874439 1.093490 0.491130 0.164640 0.364650 13.330257 15.588768 4.086020 -16.643713 -7.550732 -10.204744 -79.256212 57.186453 -37.873781 1.412213 -0.182816 -0.536250 0.742800 0.840560 0.179940 
-0.454640 16.352920 -5.503810 0.806158 -11.823797 -6.048927 -15.416579 11.556257 4.136903 -22.294415 -2.128843 0.986501 -17.107817 13.577594 35.329431 0.367680 9.692406 1.650104 -0.471180 -0.883140 -0.630950 18.526227 -7.800545 4.847935 -2.148412 13.341066 -42.165857 33.887725 -22.768259 46.085551 -2.141430 -10.229784 0.846509 -0.462810 1.268050 0.846390 -3.743152 -3.249508 -9.340606 13.347589 -8.792965 43.884853 -7.301690 -5.953439 5.751335 2.084840 -6.666955 -8.118066 -17.779243 7.378511 44.631731 -3.016820 -0.459690 -27.373670 -15.972887 -14.102968 1.277771 26.977933 12.189780 -2.817013 89.759717 -48.487974 -40.413255 -4.564966 1.710725 1.291940 0.371930 0.206170 0.302450 11.889902 16.397647 4.781006 -19.490618 -10.406550 -9.615922 -81.293763 54.866817 -37.110226 1.498454 -0.057886 -0.650930 0.868140 0.909910 0.116230 
-0.501610 16.246020 -5.417020 0.180183 -11.587901 -6.339331 -15.451321 11.575423 4.063414 -21.280697 -2.160743 1.074923 -17.744570 14.653564 37.039936 0.508784 10.067052 1.510665 -0.402990 -0.818840 -0.549330 18.495600 -7.670592 4.974295 -3.324589 14.110375 -42.183501 37.382615 -24.046041 45.568698 -2.224545 -10.580044 0.733360 -0.416510 1.197720 0.803840 -3.646148 -3.377181 -9.422141 13.377706 -7.960089 44.051232 -6.291789 -5.145819 6.045562 2.123870 -5.556296 -8.162029 -15.694378 5.994736 46.435437 -2.555040 -1.200840 -21.886900 -15.609945 -14.455738 1.553877 27.953197 13.050243 -2.165277 91.086306 -46.839238 -39.540776 -4.529578 1.847942 1.213810 0.364490 0.174680 0.295520 11.494137 16.576926 4.623020 -21.051679 -9.652365 -8.927955 -78.613765 54.092182 -34.442063 1.584925 -0.240392 -0.620330 0.789430 0.832570 0.096530 
-0.530360 16.202770 -5.319230 -0.218109 -10.731642 -5.192936 -15.442200 11.516682 3.979813 -20.641669 -2.287726 0.119318 -17.506242 15.076588 38.426670 0.652180 10.141965 1.512465 -0.341670 -0.699340 -0.540100 18.506515 -7.615420 5.116649 -5.200078 14.338001 -43.123819 41.221332 -24.973528 43.915306 -2.289740 -10.740350 0.731212 -0.375520 1.178510 0.764290 -3.668903 -3.267446 -9.485545 14.002246 -7.301484 42.124721 -5.993154 -4.339987 6.603008 2.299941 -4.496903 -8.919874 -13.589738 4.813437 47.621583 -1.924100 -1.644940 -17.868510 -14.130619 -14.579663 2.308164 24.724790 11.702821 -2.682499 95.727496 -46.308469 -43.300999 -4.391182 1.908015 1.120260 0.374050 0.173290 0.359260 9.683963 16.506509 4.931630 -18.228422 -7.535803 -9.337507 -74.331698 54.259023 -32.149269 1.550119 -0.342411 -0.567140 0.755080 0.722030 0.142240 
-0.551440 16.247280 -5.193060 -0.339871 -10.258230 -4.492678 -15.414539 11.428018 3.947352 -21.060757 -1.684909 0.203865 -15.795802 14.486738 38.738835 0.676464 9.942026 1.589876 -0.312480 -0.580050 -0.597930 18.522774 -7.763812 5.121808 -6.117992 14.210524 -42.196075 42.721705 -24.852393 42.486749 -2.243020 -10.780254 0.735346 -0.296760 1.232020 0.791580 -3.725090 -2.848463 -9.463204 15.027537 -5.721958 40.015572 -6.066229 -2.543051 7.986015 2.567598 -1.923531 -8.622808 -7.732797 1.706116 45.605679 -3.646000 -1.901770 -12.514530 -13.165041 -14.510312 1.950657 22.519744 4.434209 -3.087495 97.400063 -49.883359 -48.697390 -4.317850 1.882172 0.940370 0.494120 0.123750 0.425310 8.078765 14.984226 5.012374 -12.800567 -6.271615 -9.954923 -71.707048 54.878665 -31.917686 1.451878 -0.479153 -0.509290 0.695710 0.658500 0.211910 
-0.576220 16.360600 -5.028330 -0.921660 -10.846384 -3.899429 -15.441889 11.705564 3.922550 -20.111495 -1.280934 0.574283 -14.551942 13.934749 38.294493 0.659799 9.792275 1.653550 -0.427380 -0.754730 -0.665210 18.456385 -7.826813 5.023264 -4.640864 14.269744 -39.835114 41.140638 -23.983378 41.986209 -2.138853 -10.476153 0.844382 -0.419970 1.268810 0.800150 -3.570017 -3.220193 -9.437630 14.813062 -5.372735 38.641086 -5.137284 -2.067397 7.657785 2.796322 -3.055869 -10.600247 -10.634368 2.607146 47.279804 -4.451710 -2.116680 -9.504210 -13.180231 -15.152372 3.997843 14.751119 4.750215 -3.315317 104.874557 -51.135375 -59.595719 -4.340300 1.820676 0.957120 0.502250 0.093460 0.394010 7.684343 17.107257 6.276659 -7.670179 -6.511839 -11.588680 -72.605930 58.015815 -34.732356 1.303673 -0.225595 -0.519810 0.682800 0.735800 0.209340 
-0.576160 16.547970 -4.853220 -1.961253 -11.052992 -4.597003 -15.306480 11.859544 3.868857 -18.340740 -0.539302 2.698259 -13.179177 13.362661 37.499360 0.752548 9.529915 1.751048 -0.465820 -0.798830 -0.697400 18.523945 -8.265919 4.785245 -2.348735 13.509019 -35.498868 37.854871 -22.649575 41.608746 -2.015833 -10.023357 0.986844 -0.509470 1.227890 0.800320 -3.836062 -2.826006 -9.240282 17.519298 -6.931656 38.834363 -7.596509 -2.722041 8.132688 3.173235 -4.283961 -13.031493 -13.249925 3.815229 46.533763 -4.066950 -1.724910 -7.102180 -12.216059 -15.784519 5.950239 7.526017 6.288065 -4.247697 110.538031 -54.034831 -72.776375 -4.292019 1.886946 0.919260 0.463800 0.108190 0.395520 6.016748 18.437282 8.672753 4.585642 -7.492708 -14.584449 -80.208448 59.545246 -43.703161 1.193812 0.079318 -0.450390 0.596240 0.709150 0.243720 
-0.620160 16.788170 -4.711400 -1.705348 -10.875556 -5.050654 -15.260020 12.086779 3.804879 -16.302813 -0.436004 3.269624 -12.534430 13.548709 38.311953 0.883178 9.615889 1.763204 -0.552010 -0.842290 -0.814690 18.521621 -8.563466 4.538973 -0.599479 12.566666 -32.204236 33.016411 -21.041419 42.292364 -1.839663 -9.586641 1.170458 -0.562730 1.292260 0.739150 -3.872292 -2.807058 -9.043674 17.107067 -7.221129 38.071743 -8.096351 -2.936154 10.190697 3.274469 -6.083396 -15.456971 -17.220982 5.710039 44.654897 -1.888130 -2.180970 -4.229680 -8.741152 -15.996707 8.415217 -5.650992 4.625807 -6.265746 112.527853 -56.204597 -83.454251 -4.313588 1.891809 0.847150 0.477870 0.065800 0.416990 2.753518 20.132634 10.394121 16.714199 -6.256346 -17.944622 -82.776465 62.483216 -50.477038 1.048695 0.549696 -0.443100 0.626990 0.721810 0.308750 
-0.661610 17.044090 -4.554430 -1.960998 -10.563849 -4.558159 -15.181383 12.266125 3.667849 -13.385782 -1.173542 1.831779 -11.642993 14.199745 41.756493 1.000938 10.082996 1.635657 -0.598540 -0.876100 -0.865850 18.550941 -8.876284 4.353209 1.135506 11.811178 -29.656263 28.566878 -19.438024 42.587998 -1.679792 -9.109433 1.351212 -0.591000 1.348320 0.707280 -4.002126 -2.628123 -8.856777 17.658585 -7.276933 35.013836 -8.684167 -2.729923 12.300354 3.418060 -6.758342 -17.031638 -19.168509 7.052914 44.882905 -0.870420 -2.367790 -1.894340 -5.936176 -16.845099 10.527972 -19.111209 1.197320 -7.877561 108.889607 -59.337243 -86.894502 -4.338808 1.670824 0.815560 0.500540 0.038680 0.428400 -0.046592 21.498381 11.245806 28.390257 -2.828177 -21.359813 -78.541304 66.519479 -51.536171 0.900683 0.954531 -0.451260 0.671470 0.739640 0.337110 
-0.713310 17.320510 -4.380040 -1.536807 -10.062014 -3.668442 -15.205841 12.620527 3.615416 -10.706770 -2.163158 -0.594492 -10.287657 14.764712 46.142883 1.108265 10.667021 1.437540 -0.649900 -0.922790 -0.931300 18.471977 -9.059338 4.107523 2.437114 10.638897 -27.464719 22.849503 -17.259265 43.057142 -1.462011 -8.497888 1.542159 -0.615600 1.386270 0.683730 -3.815741 -3.004508 -8.735426 15.495248 -6.639865 31.884432 -6.930046 -2.575415 13.261728 3.352012 -7.451994 -18.464581 -21.478444 8.620619 46.207482 0.129120 -3.034430 1.152630 -4.515306 -18.222197 12.597824 -34.373459 -1.278061 -9.787186 101.728255 -64.319223 -86.604687 -4.326060 1.127243 0.795470 0.514210 0.006080 0.419640 -1.009484 23.758574 11.829826 36.335012 0.586268 -24.721560 -63.292828 70.260468 -44.062351 0.961981 0.623186 -0.460600 0.684780 0.779810 0.355850 
